<mxfile host="Electron" agent="Mozilla/5.0 (Macintosh; Intel Mac OS X 10_15_7) AppleWebKit/537.36 (KHTML, like Gecko) draw.io/28.2.5 Chrome/138.0.7204.251 Electron/37.6.1 Safari/537.36" version="28.2.5">
  <diagram name="Page-1" id="kWilNoaUwn7FJbUgOTQF">
    <mxGraphModel dx="2042" dy="1247" grid="1" gridSize="10" guides="1" tooltips="1" connect="1" arrows="1" fold="1" page="1" pageScale="1" pageWidth="850" pageHeight="1100" background="#FFFFFF" math="0" shadow="1">
      <root>
        <mxCell id="0" />
        <mxCell id="1" parent="0" />
        <mxCell id="vQsZXTqjtYqUCwlxwALo-83" style="edgeStyle=none;curved=1;rounded=1;orthogonalLoop=1;jettySize=auto;html=1;fontSize=12;startSize=8;endSize=8;" parent="1" target="vQsZXTqjtYqUCwlxwALo-78" edge="1">
          <mxGeometry relative="1" as="geometry">
            <mxPoint x="870" y="208" as="sourcePoint" />
          </mxGeometry>
        </mxCell>
        <mxCell id="vQsZXTqjtYqUCwlxwALo-90" value="Transform&lt;br&gt;Data" style="edgeLabel;html=1;align=center;verticalAlign=middle;resizable=0;points=[];fontSize=12;rounded=1;" parent="vQsZXTqjtYqUCwlxwALo-83" vertex="1" connectable="0">
          <mxGeometry x="0.0667" y="3" relative="1" as="geometry">
            <mxPoint x="-8" y="3" as="offset" />
          </mxGeometry>
        </mxCell>
        <mxCell id="vQsZXTqjtYqUCwlxwALo-99" value="" style="edgeStyle=none;curved=1;rounded=1;orthogonalLoop=1;jettySize=auto;html=1;fontSize=12;startSize=8;endSize=8;" parent="1" target="vQsZXTqjtYqUCwlxwALo-97" edge="1">
          <mxGeometry relative="1" as="geometry">
            <mxPoint x="770" y="208.52631578947376" as="sourcePoint" />
          </mxGeometry>
        </mxCell>
        <mxCell id="vQsZXTqjtYqUCwlxwALo-79" value="Streamlit" style="sketch=0;outlineConnect=0;fontColor=#232F3E;gradientColor=none;strokeColor=#ffffff;fillColor=#232F3E;dashed=0;verticalLabelPosition=middle;verticalAlign=bottom;align=center;html=1;whiteSpace=wrap;fontSize=10;fontStyle=1;spacing=3;shape=mxgraph.aws4.productIcon;prIcon=mxgraph.aws4.quicksight;rounded=1;" parent="1" vertex="1">
          <mxGeometry x="740" y="155" width="80" height="110" as="geometry" />
        </mxCell>
        <mxCell id="vQsZXTqjtYqUCwlxwALo-85" value="" style="edgeStyle=none;curved=1;rounded=1;orthogonalLoop=1;jettySize=auto;html=1;fontSize=12;startSize=8;endSize=8;" parent="1" source="vQsZXTqjtYqUCwlxwALo-80" edge="1">
          <mxGeometry relative="1" as="geometry">
            <mxPoint x="1040" y="208" as="targetPoint" />
          </mxGeometry>
        </mxCell>
        <mxCell id="vQsZXTqjtYqUCwlxwALo-91" value="Pull Data" style="edgeLabel;html=1;align=center;verticalAlign=middle;resizable=0;points=[];fontSize=12;rounded=1;" parent="vQsZXTqjtYqUCwlxwALo-85" vertex="1" connectable="0">
          <mxGeometry x="-0.2767" y="-1" relative="1" as="geometry">
            <mxPoint x="-4" y="1" as="offset" />
          </mxGeometry>
        </mxCell>
        <mxCell id="vQsZXTqjtYqUCwlxwALo-86" value="" style="edgeStyle=none;curved=1;rounded=1;orthogonalLoop=1;jettySize=auto;html=1;fontSize=12;startSize=8;endSize=8;" parent="1" target="vQsZXTqjtYqUCwlxwALo-84" edge="1">
          <mxGeometry relative="1" as="geometry">
            <mxPoint x="1240" y="208" as="sourcePoint" />
          </mxGeometry>
        </mxCell>
        <mxCell id="vQsZXTqjtYqUCwlxwALo-92" value="Create&amp;nbsp;&lt;div&gt;Marts&lt;/div&gt;" style="edgeLabel;html=1;align=center;verticalAlign=middle;resizable=0;points=[];fontSize=12;rounded=1;" parent="vQsZXTqjtYqUCwlxwALo-86" vertex="1" connectable="0">
          <mxGeometry x="0.05" y="2" relative="1" as="geometry">
            <mxPoint as="offset" />
          </mxGeometry>
        </mxCell>
        <mxCell id="vQsZXTqjtYqUCwlxwALo-98" value="" style="edgeStyle=none;curved=1;rounded=1;orthogonalLoop=1;jettySize=auto;html=1;fontSize=12;startSize=8;endSize=8;" parent="1" target="vQsZXTqjtYqUCwlxwALo-97" edge="1">
          <mxGeometry relative="1" as="geometry">
            <mxPoint x="500" y="210" as="sourcePoint" />
          </mxGeometry>
        </mxCell>
        <mxCell id="vQsZXTqjtYqUCwlxwALo-100" value="Store Raw&lt;br&gt;Immutable&lt;br&gt;Data" style="edgeLabel;html=1;align=center;verticalAlign=middle;resizable=0;points=[];fontSize=12;rounded=1;" parent="vQsZXTqjtYqUCwlxwALo-98" vertex="1" connectable="0">
          <mxGeometry x="0.2704" y="2" relative="1" as="geometry">
            <mxPoint x="-17" as="offset" />
          </mxGeometry>
        </mxCell>
        <mxCell id="vQsZXTqjtYqUCwlxwALo-97" value="S3 (Bronze)" style="sketch=0;outlineConnect=0;fontColor=#232F3E;gradientColor=none;strokeColor=#ffffff;fillColor=#232F3E;dashed=0;verticalLabelPosition=middle;verticalAlign=bottom;align=center;html=1;whiteSpace=wrap;fontSize=10;fontStyle=1;spacing=3;shape=mxgraph.aws4.productIcon;prIcon=mxgraph.aws4.s3;rounded=1;" parent="1" vertex="1">
          <mxGeometry x="590" y="160" width="80" height="100" as="geometry" />
        </mxCell>
        <mxCell id="Pio3X1-vsG3t-hX6EWuV-3" style="edgeStyle=none;curved=1;rounded=0;orthogonalLoop=1;jettySize=auto;html=1;fontSize=12;startSize=8;endSize=8;" edge="1" parent="1" source="Pio3X1-vsG3t-hX6EWuV-1" target="Pio3X1-vsG3t-hX6EWuV-2">
          <mxGeometry relative="1" as="geometry" />
        </mxCell>
        <mxCell id="Pio3X1-vsG3t-hX6EWuV-4" value="Pull Data" style="edgeLabel;html=1;align=center;verticalAlign=middle;resizable=0;points=[];fontSize=12;" vertex="1" connectable="0" parent="Pio3X1-vsG3t-hX6EWuV-3">
          <mxGeometry x="-0.2533" y="-2" relative="1" as="geometry">
            <mxPoint x="-7" y="2" as="offset" />
          </mxGeometry>
        </mxCell>
        <mxCell id="Pio3X1-vsG3t-hX6EWuV-1" value="AWS Lambda" style="sketch=0;outlineConnect=0;fontColor=#232F3E;gradientColor=none;strokeColor=#ffffff;fillColor=#232F3E;dashed=0;verticalLabelPosition=middle;verticalAlign=bottom;align=center;html=1;whiteSpace=wrap;fontSize=10;fontStyle=1;spacing=3;shape=mxgraph.aws4.productIcon;prIcon=mxgraph.aws4.lambda;" vertex="1" parent="1">
          <mxGeometry x="425" y="163" width="80" height="100" as="geometry" />
        </mxCell>
        <mxCell id="Pio3X1-vsG3t-hX6EWuV-2" value="Wistia API" style="sketch=0;outlineConnect=0;fontColor=#232F3E;gradientColor=none;strokeColor=#ffffff;fillColor=#232F3E;dashed=0;verticalLabelPosition=middle;verticalAlign=bottom;align=center;html=1;whiteSpace=wrap;fontSize=10;fontStyle=1;spacing=3;shape=mxgraph.aws4.productIcon;prIcon=mxgraph.aws4.api_gateway;" vertex="1" parent="1">
          <mxGeometry x="270" y="158" width="80" height="110" as="geometry" />
        </mxCell>
      </root>
    </mxGraphModel>
  </diagram>
</mxfile>
